<mxfile host="app.diagrams.net" modified="2023-02-16T01:33:04.967Z" agent="5.0 (Windows NT 10.0; Win64; x64) AppleWebKit/537.36 (KHTML, like Gecko) Chrome/110.0.0.0 Safari/537.36" etag="nlWPwSwZ7_3sve6-3_4m" version="20.8.20" type="github" pages="5">
  <diagram id="xFhZlersmDGYWYSMzei8" name="Page-1">
    <mxGraphModel dx="1562" dy="837" grid="1" gridSize="10" guides="1" tooltips="1" connect="1" arrows="1" fold="1" page="1" pageScale="1" pageWidth="827" pageHeight="1169" math="0" shadow="0">
      <root>
        <mxCell id="0" />
        <mxCell id="1" parent="0" />
        <mxCell id="Jz0wuJRHFmpil4KGApeS-1" value="&lt;font style=&quot;font-size: 17px;&quot;&gt;BH1005检测设备&lt;/font&gt;" style="rounded=0;whiteSpace=wrap;html=1;" parent="1" vertex="1">
          <mxGeometry x="40" y="10" width="140" height="60" as="geometry" />
        </mxCell>
        <mxCell id="Jz0wuJRHFmpil4KGApeS-2" value="&lt;font style=&quot;font-size: 17px;&quot;&gt;移动端APP&lt;/font&gt;" style="rounded=0;whiteSpace=wrap;html=1;" parent="1" vertex="1">
          <mxGeometry x="340" y="10" width="120" height="60" as="geometry" />
        </mxCell>
        <mxCell id="Jz0wuJRHFmpil4KGApeS-3" value="&lt;font style=&quot;font-size: 17px;&quot;&gt;省厅系统平台&lt;/font&gt;" style="rounded=0;whiteSpace=wrap;html=1;" parent="1" vertex="1">
          <mxGeometry x="650" y="10" width="120" height="60" as="geometry" />
        </mxCell>
        <mxCell id="B_fecF_87CzBKQshxJQv-2" value="" style="endArrow=none;html=1;entryX=0.5;entryY=1;entryDx=0;entryDy=0;startArrow=none;" parent="1" target="Jz0wuJRHFmpil4KGApeS-2" edge="1">
          <mxGeometry width="50" height="50" relative="1" as="geometry">
            <mxPoint x="399.5581395348838" y="260" as="sourcePoint" />
            <mxPoint x="440" y="70" as="targetPoint" />
          </mxGeometry>
        </mxCell>
        <mxCell id="7YiTJFwSveTUhRuW2Vuq-1" value="" style="endArrow=none;html=1;startArrow=none;" parent="1" source="dLPxhJFHbC_xjFrxtmH6-17" edge="1">
          <mxGeometry width="50" height="50" relative="1" as="geometry">
            <mxPoint x="100" y="1141.5999755859375" as="sourcePoint" />
            <mxPoint x="100" y="70" as="targetPoint" />
          </mxGeometry>
        </mxCell>
        <mxCell id="7YiTJFwSveTUhRuW2Vuq-2" value="" style="endArrow=none;html=1;startArrow=none;" parent="1" source="dLPxhJFHbC_xjFrxtmH6-28" edge="1">
          <mxGeometry width="50" height="50" relative="1" as="geometry">
            <mxPoint x="710" y="1014.7999877929688" as="sourcePoint" />
            <mxPoint x="710" y="70" as="targetPoint" />
          </mxGeometry>
        </mxCell>
        <mxCell id="7YiTJFwSveTUhRuW2Vuq-9" style="edgeStyle=orthogonalEdgeStyle;rounded=0;orthogonalLoop=1;jettySize=auto;html=1;exitX=1;exitY=0.5;exitDx=0;exitDy=0;" parent="1" source="7YiTJFwSveTUhRuW2Vuq-3" edge="1">
          <mxGeometry relative="1" as="geometry">
            <mxPoint x="700" y="125" as="targetPoint" />
          </mxGeometry>
        </mxCell>
        <mxCell id="7YiTJFwSveTUhRuW2Vuq-3" value="" style="rounded=1;whiteSpace=wrap;html=1;" parent="1" vertex="1">
          <mxGeometry x="395" y="100" width="10" height="50" as="geometry" />
        </mxCell>
        <mxCell id="7YiTJFwSveTUhRuW2Vuq-4" value="" style="rounded=1;whiteSpace=wrap;html=1;arcSize=0;" parent="1" vertex="1">
          <mxGeometry x="705" y="100" width="10" height="220" as="geometry" />
        </mxCell>
        <mxCell id="7YiTJFwSveTUhRuW2Vuq-7" value="&lt;font style=&quot;font-size: 15px;&quot;&gt;1、用户登录：输入用户名和密码&lt;/font&gt;" style="text;html=1;strokeColor=none;fillColor=none;align=center;verticalAlign=middle;whiteSpace=wrap;rounded=0;" parent="1" vertex="1">
          <mxGeometry x="441" y="100" width="240" height="20" as="geometry" />
        </mxCell>
        <mxCell id="7YiTJFwSveTUhRuW2Vuq-11" value="&lt;font style=&quot;font-size: 15px;&quot;&gt;2、验证用户名和密码&lt;/font&gt;" style="text;html=1;strokeColor=none;fillColor=none;align=center;verticalAlign=middle;whiteSpace=wrap;rounded=0;" parent="1" vertex="1">
          <mxGeometry x="740" y="145" width="130" height="20" as="geometry" />
        </mxCell>
        <mxCell id="7YiTJFwSveTUhRuW2Vuq-13" value="" style="rounded=1;whiteSpace=wrap;html=1;" parent="1" vertex="1">
          <mxGeometry x="395" y="200" width="10" height="40" as="geometry" />
        </mxCell>
        <mxCell id="7YiTJFwSveTUhRuW2Vuq-14" value="&lt;font style=&quot;font-size: 15px;&quot;&gt;3、验证失败、提示用户名/密码错误&lt;/font&gt;" style="text;html=1;strokeColor=none;fillColor=none;align=center;verticalAlign=middle;whiteSpace=wrap;rounded=0;" parent="1" vertex="1">
          <mxGeometry x="450" y="199" width="241" height="20" as="geometry" />
        </mxCell>
        <mxCell id="7YiTJFwSveTUhRuW2Vuq-17" value="" style="endArrow=none;html=1;entryX=0.5;entryY=1;entryDx=0;entryDy=0;startArrow=none;" parent="1" source="7YiTJFwSveTUhRuW2Vuq-27" edge="1">
          <mxGeometry width="50" height="50" relative="1" as="geometry">
            <mxPoint x="400" y="983.2000732421875" as="sourcePoint" />
            <mxPoint x="399.5" y="310" as="targetPoint" />
          </mxGeometry>
        </mxCell>
        <mxCell id="7YiTJFwSveTUhRuW2Vuq-18" value="" style="rounded=1;whiteSpace=wrap;html=1;" parent="1" vertex="1">
          <mxGeometry x="395" y="261" width="10" height="159" as="geometry" />
        </mxCell>
        <mxCell id="7YiTJFwSveTUhRuW2Vuq-19" value="&lt;font style=&quot;font-size: 15px;&quot;&gt;4、验证成功，获取返回的token和uid，跳转到人脸认证界面&lt;/font&gt;" style="text;html=1;strokeColor=none;fillColor=none;align=center;verticalAlign=middle;whiteSpace=wrap;rounded=0;" parent="1" vertex="1">
          <mxGeometry x="430" y="263" width="240" height="20" as="geometry" />
        </mxCell>
        <mxCell id="7YiTJFwSveTUhRuW2Vuq-22" value="&lt;font style=&quot;font-size: 15px;&quot;&gt;6、上传人脸照片 +&amp;nbsp;token + uid&lt;/font&gt;" style="text;html=1;strokeColor=none;fillColor=none;align=center;verticalAlign=middle;whiteSpace=wrap;rounded=0;" parent="1" vertex="1">
          <mxGeometry x="441" y="366" width="227" height="20" as="geometry" />
        </mxCell>
        <mxCell id="7YiTJFwSveTUhRuW2Vuq-23" value="" style="rounded=1;whiteSpace=wrap;html=1;" parent="1" vertex="1">
          <mxGeometry x="705" y="360" width="10" height="210" as="geometry" />
        </mxCell>
        <mxCell id="7YiTJFwSveTUhRuW2Vuq-24" value="&lt;font style=&quot;font-size: 15px;&quot;&gt;7、进行人脸比对验证&lt;/font&gt;" style="text;html=1;strokeColor=none;fillColor=none;align=center;verticalAlign=middle;whiteSpace=wrap;rounded=0;" parent="1" vertex="1">
          <mxGeometry x="740" y="410" width="150" height="20" as="geometry" />
        </mxCell>
        <mxCell id="7YiTJFwSveTUhRuW2Vuq-25" value="" style="rounded=1;whiteSpace=wrap;html=1;" parent="1" vertex="1">
          <mxGeometry x="395" y="440" width="10" height="50" as="geometry" />
        </mxCell>
        <mxCell id="7YiTJFwSveTUhRuW2Vuq-26" value="&lt;font style=&quot;font-size: 15px;&quot;&gt;8、人脸比对失败、提示失败，重新拍照&lt;/font&gt;" style="text;html=1;strokeColor=none;fillColor=none;align=center;verticalAlign=middle;whiteSpace=wrap;rounded=0;" parent="1" vertex="1">
          <mxGeometry x="425" y="445" width="268" height="20" as="geometry" />
        </mxCell>
        <mxCell id="7YiTJFwSveTUhRuW2Vuq-28" value="&lt;font style=&quot;font-size: 15px;&quot;&gt;9、人脸比对成功、跳转到检测信息录入界面&lt;/font&gt;" style="text;html=1;strokeColor=none;fillColor=none;align=center;verticalAlign=middle;whiteSpace=wrap;rounded=0;" parent="1" vertex="1">
          <mxGeometry x="406" y="517" width="300" height="20" as="geometry" />
        </mxCell>
        <mxCell id="dLPxhJFHbC_xjFrxtmH6-1" value="" style="endArrow=classic;html=1;" parent="1" edge="1">
          <mxGeometry width="50" height="50" relative="1" as="geometry">
            <mxPoint x="715" y="125" as="sourcePoint" />
            <mxPoint x="715" y="175" as="targetPoint" />
            <Array as="points">
              <mxPoint x="740" y="125" />
              <mxPoint x="740" y="155" />
              <mxPoint x="740" y="175" />
            </Array>
          </mxGeometry>
        </mxCell>
        <mxCell id="dLPxhJFHbC_xjFrxtmH6-2" value="" style="endArrow=classic;html=1;" parent="1" edge="1">
          <mxGeometry width="50" height="50" relative="1" as="geometry">
            <mxPoint x="405" y="305.5" as="sourcePoint" />
            <mxPoint x="405" y="355.5" as="targetPoint" />
            <Array as="points">
              <mxPoint x="430" y="305.5" />
              <mxPoint x="430" y="335.5" />
              <mxPoint x="430" y="355.5" />
            </Array>
          </mxGeometry>
        </mxCell>
        <mxCell id="dLPxhJFHbC_xjFrxtmH6-3" value="&lt;font style=&quot;font-size: 15px;&quot;&gt;5、调用摄像头，拍摄人脸照片&lt;/font&gt;" style="text;html=1;strokeColor=none;fillColor=none;align=center;verticalAlign=middle;whiteSpace=wrap;rounded=0;" parent="1" vertex="1">
          <mxGeometry x="427" y="320" width="213" height="20" as="geometry" />
        </mxCell>
        <mxCell id="dLPxhJFHbC_xjFrxtmH6-5" value="" style="endArrow=classic;html=1;" parent="1" edge="1">
          <mxGeometry width="50" height="50" relative="1" as="geometry">
            <mxPoint x="715" y="390" as="sourcePoint" />
            <mxPoint x="715" y="440" as="targetPoint" />
            <Array as="points">
              <mxPoint x="740" y="390" />
              <mxPoint x="740" y="420" />
              <mxPoint x="740" y="440" />
            </Array>
          </mxGeometry>
        </mxCell>
        <mxCell id="dLPxhJFHbC_xjFrxtmH6-6" value="" style="endArrow=classic;html=1;" parent="1" edge="1">
          <mxGeometry width="50" height="50" relative="1" as="geometry">
            <mxPoint x="705" y="219.5" as="sourcePoint" />
            <mxPoint x="405" y="219.84000000000015" as="targetPoint" />
          </mxGeometry>
        </mxCell>
        <mxCell id="dLPxhJFHbC_xjFrxtmH6-7" value="" style="endArrow=classic;html=1;" parent="1" edge="1">
          <mxGeometry width="50" height="50" relative="1" as="geometry">
            <mxPoint x="705" y="293" as="sourcePoint" />
            <mxPoint x="405" y="293.34000000000015" as="targetPoint" />
          </mxGeometry>
        </mxCell>
        <mxCell id="dLPxhJFHbC_xjFrxtmH6-8" value="" style="endArrow=classic;html=1;" parent="1" edge="1">
          <mxGeometry width="50" height="50" relative="1" as="geometry">
            <mxPoint x="705" y="468.5" as="sourcePoint" />
            <mxPoint x="405" y="468.84000000000015" as="targetPoint" />
          </mxGeometry>
        </mxCell>
        <mxCell id="dLPxhJFHbC_xjFrxtmH6-9" value="" style="endArrow=classic;html=1;" parent="1" edge="1">
          <mxGeometry width="50" height="50" relative="1" as="geometry">
            <mxPoint x="705" y="540" as="sourcePoint" />
            <mxPoint x="405" y="540.3400000000001" as="targetPoint" />
          </mxGeometry>
        </mxCell>
        <mxCell id="dLPxhJFHbC_xjFrxtmH6-10" value="" style="endArrow=classic;html=1;" parent="1" edge="1">
          <mxGeometry width="50" height="50" relative="1" as="geometry">
            <mxPoint x="405" y="570" as="sourcePoint" />
            <mxPoint x="405" y="620" as="targetPoint" />
            <Array as="points">
              <mxPoint x="430" y="570" />
              <mxPoint x="430" y="600" />
              <mxPoint x="430" y="620" />
            </Array>
          </mxGeometry>
        </mxCell>
        <mxCell id="dLPxhJFHbC_xjFrxtmH6-11" value="&lt;font style=&quot;font-size: 15px;&quot;&gt;10、录入检测人信息、被检人信息和采样信息，跳转到检测界面&lt;/font&gt;" style="text;html=1;strokeColor=none;fillColor=none;align=center;verticalAlign=middle;whiteSpace=wrap;rounded=0;" parent="1" vertex="1">
          <mxGeometry x="435" y="589" width="230" height="20" as="geometry" />
        </mxCell>
        <mxCell id="dLPxhJFHbC_xjFrxtmH6-17" value="" style="rounded=1;whiteSpace=wrap;html=1;" parent="1" vertex="1">
          <mxGeometry x="95" y="592" width="10" height="188" as="geometry" />
        </mxCell>
        <mxCell id="dLPxhJFHbC_xjFrxtmH6-18" value="" style="endArrow=none;html=1;" parent="1" target="dLPxhJFHbC_xjFrxtmH6-17" edge="1">
          <mxGeometry width="50" height="50" relative="1" as="geometry">
            <mxPoint x="100" y="1020" as="sourcePoint" />
            <mxPoint x="100" y="70" as="targetPoint" />
          </mxGeometry>
        </mxCell>
        <mxCell id="dLPxhJFHbC_xjFrxtmH6-19" value="" style="endArrow=classic;html=1;exitX=-0.26;exitY=0.889;exitDx=0;exitDy=0;exitPerimeter=0;" parent="1" edge="1">
          <mxGeometry width="50" height="50" relative="1" as="geometry">
            <mxPoint x="392.4000000000001" y="631.9970000000001" as="sourcePoint" />
            <mxPoint x="105" y="632.1000000000001" as="targetPoint" />
          </mxGeometry>
        </mxCell>
        <mxCell id="dLPxhJFHbC_xjFrxtmH6-20" value="&lt;font style=&quot;font-size: 15px;&quot;&gt;11、通过蓝牙连接BH1005设备&lt;/font&gt;" style="text;html=1;strokeColor=none;fillColor=none;align=center;verticalAlign=middle;whiteSpace=wrap;rounded=0;" parent="1" vertex="1">
          <mxGeometry x="140" y="609" width="210" height="20" as="geometry" />
        </mxCell>
        <mxCell id="dLPxhJFHbC_xjFrxtmH6-21" value="" style="endArrow=classic;html=1;" parent="1" edge="1">
          <mxGeometry width="50" height="50" relative="1" as="geometry">
            <mxPoint x="105" y="646" as="sourcePoint" />
            <mxPoint x="105" y="696" as="targetPoint" />
            <Array as="points">
              <mxPoint x="130" y="646" />
              <mxPoint x="130" y="676" />
              <mxPoint x="130" y="696" />
            </Array>
          </mxGeometry>
        </mxCell>
        <mxCell id="dLPxhJFHbC_xjFrxtmH6-22" value="&lt;font style=&quot;font-size: 15px;&quot;&gt;12、插入试剂卡，开始检测&lt;/font&gt;" style="text;html=1;strokeColor=none;fillColor=none;align=center;verticalAlign=middle;whiteSpace=wrap;rounded=0;" parent="1" vertex="1">
          <mxGeometry x="130" y="663" width="198" height="20" as="geometry" />
        </mxCell>
        <mxCell id="dLPxhJFHbC_xjFrxtmH6-23" value="" style="rounded=1;whiteSpace=wrap;html=1;" parent="1" vertex="1">
          <mxGeometry x="395" y="718" width="10" height="272" as="geometry" />
        </mxCell>
        <mxCell id="dLPxhJFHbC_xjFrxtmH6-25" value="" style="endArrow=none;html=1;entryX=0.5;entryY=1;entryDx=0;entryDy=0;" parent="1" target="dLPxhJFHbC_xjFrxtmH6-23" edge="1">
          <mxGeometry width="50" height="50" relative="1" as="geometry">
            <mxPoint x="400" y="1020" as="sourcePoint" />
            <mxPoint x="399.5" y="310" as="targetPoint" />
          </mxGeometry>
        </mxCell>
        <mxCell id="dLPxhJFHbC_xjFrxtmH6-26" style="edgeStyle=orthogonalEdgeStyle;rounded=0;orthogonalLoop=1;jettySize=auto;html=1;" parent="1" edge="1">
          <mxGeometry relative="1" as="geometry">
            <mxPoint x="394" y="756.5" as="targetPoint" />
            <mxPoint x="106" y="756.5" as="sourcePoint" />
          </mxGeometry>
        </mxCell>
        <mxCell id="dLPxhJFHbC_xjFrxtmH6-27" value="&lt;font style=&quot;font-size: 15px;&quot;&gt;13、检测完成，将检测数据通过蓝牙传给APP&lt;/font&gt;" style="text;html=1;strokeColor=none;fillColor=none;align=center;verticalAlign=middle;whiteSpace=wrap;rounded=0;" parent="1" vertex="1">
          <mxGeometry x="120" y="728" width="250" height="20" as="geometry" />
        </mxCell>
        <mxCell id="dLPxhJFHbC_xjFrxtmH6-28" value="" style="rounded=1;whiteSpace=wrap;html=1;" parent="1" vertex="1">
          <mxGeometry x="705" y="786" width="10" height="204" as="geometry" />
        </mxCell>
        <mxCell id="dLPxhJFHbC_xjFrxtmH6-29" value="" style="endArrow=none;html=1;" parent="1" target="dLPxhJFHbC_xjFrxtmH6-28" edge="1">
          <mxGeometry width="50" height="50" relative="1" as="geometry">
            <mxPoint x="710" y="1020" as="sourcePoint" />
            <mxPoint x="710" y="70" as="targetPoint" />
          </mxGeometry>
        </mxCell>
        <mxCell id="dLPxhJFHbC_xjFrxtmH6-32" value="" style="endArrow=classic;html=1;dashed=1;" parent="1" edge="1">
          <mxGeometry width="50" height="50" relative="1" as="geometry">
            <mxPoint x="405" y="756" as="sourcePoint" />
            <mxPoint x="405" y="806" as="targetPoint" />
            <Array as="points">
              <mxPoint x="430" y="756" />
              <mxPoint x="430" y="786" />
              <mxPoint x="430" y="806" />
            </Array>
          </mxGeometry>
        </mxCell>
        <mxCell id="dLPxhJFHbC_xjFrxtmH6-33" value="&lt;font style=&quot;font-size: 15px;&quot;&gt;14、补充附件&lt;/font&gt;" style="text;html=1;strokeColor=none;fillColor=none;align=center;verticalAlign=middle;whiteSpace=wrap;rounded=0;" parent="1" vertex="1">
          <mxGeometry x="430" y="770" width="110" height="20" as="geometry" />
        </mxCell>
        <mxCell id="dLPxhJFHbC_xjFrxtmH6-36" value="&lt;font style=&quot;font-size: 15px;&quot;&gt;15、上传附件&lt;/font&gt;" style="text;html=1;strokeColor=none;fillColor=none;align=center;verticalAlign=middle;whiteSpace=wrap;rounded=0;" parent="1" vertex="1">
          <mxGeometry x="443.5" y="820" width="180" height="20" as="geometry" />
        </mxCell>
        <mxCell id="dLPxhJFHbC_xjFrxtmH6-38" value="&lt;font style=&quot;font-size: 15px;&quot;&gt;17、上传检测结果&lt;/font&gt;" style="text;html=1;strokeColor=none;fillColor=none;align=center;verticalAlign=middle;whiteSpace=wrap;rounded=0;" parent="1" vertex="1">
          <mxGeometry x="441" y="930" width="180" height="20" as="geometry" />
        </mxCell>
        <mxCell id="dLPxhJFHbC_xjFrxtmH6-40" style="edgeStyle=orthogonalEdgeStyle;orthogonalLoop=1;jettySize=auto;html=1;fixDash=0;sketch=0;curved=1;" parent="1" edge="1">
          <mxGeometry relative="1" as="geometry">
            <mxPoint x="706" y="950" as="targetPoint" />
            <mxPoint x="406" y="950" as="sourcePoint" />
          </mxGeometry>
        </mxCell>
        <mxCell id="dLPxhJFHbC_xjFrxtmH6-41" style="edgeStyle=orthogonalEdgeStyle;orthogonalLoop=1;jettySize=auto;html=1;fixDash=0;sketch=0;curved=1;dashed=1;" parent="1" edge="1">
          <mxGeometry relative="1" as="geometry">
            <mxPoint x="706" y="840" as="targetPoint" />
            <mxPoint x="406" y="840" as="sourcePoint" />
          </mxGeometry>
        </mxCell>
        <mxCell id="dLPxhJFHbC_xjFrxtmH6-42" style="edgeStyle=orthogonalEdgeStyle;orthogonalLoop=1;jettySize=auto;html=1;fixDash=0;sketch=0;curved=1;" parent="1" edge="1">
          <mxGeometry relative="1" as="geometry">
            <mxPoint x="705" y="391" as="targetPoint" />
            <mxPoint x="405" y="391" as="sourcePoint" />
          </mxGeometry>
        </mxCell>
        <mxCell id="hBECzf95PucbX9-BR-4x-3" value="&lt;font style=&quot;font-size: 15px;&quot;&gt;16、返回文件地址&lt;/font&gt;" style="text;html=1;strokeColor=none;fillColor=none;align=center;verticalAlign=middle;whiteSpace=wrap;rounded=0;" parent="1" vertex="1">
          <mxGeometry x="450" y="872" width="180" height="20" as="geometry" />
        </mxCell>
        <mxCell id="7YiTJFwSveTUhRuW2Vuq-27" value="" style="rounded=1;whiteSpace=wrap;html=1;" parent="1" vertex="1">
          <mxGeometry x="395" y="507" width="10" height="153" as="geometry" />
        </mxCell>
        <mxCell id="hBECzf95PucbX9-BR-4x-5" value="" style="endArrow=none;html=1;entryX=0.5;entryY=1;entryDx=0;entryDy=0;startArrow=none;" parent="1" source="dLPxhJFHbC_xjFrxtmH6-23" target="7YiTJFwSveTUhRuW2Vuq-27" edge="1">
          <mxGeometry width="50" height="50" relative="1" as="geometry">
            <mxPoint x="399.8837209302326" y="640" as="sourcePoint" />
            <mxPoint x="399.5" y="310" as="targetPoint" />
          </mxGeometry>
        </mxCell>
        <mxCell id="hBECzf95PucbX9-BR-4x-9" value="" style="endArrow=classic;html=1;dashed=1;" parent="1" edge="1">
          <mxGeometry width="50" height="50" relative="1" as="geometry">
            <mxPoint x="704" y="893" as="sourcePoint" />
            <mxPoint x="404" y="893.3400000000001" as="targetPoint" />
          </mxGeometry>
        </mxCell>
      </root>
    </mxGraphModel>
  </diagram>
  <diagram id="-RHdT8XD_bXAZhCv4mK_" name="第 2 页">
    <mxGraphModel dx="1562" dy="837" grid="1" gridSize="10" guides="1" tooltips="1" connect="1" arrows="1" fold="1" page="1" pageScale="1" pageWidth="827" pageHeight="1169" math="0" shadow="0">
      <root>
        <mxCell id="0" />
        <mxCell id="1" parent="0" />
        <mxCell id="RCdA81vkIHAaocAsmrIj-4" style="edgeStyle=orthogonalEdgeStyle;rounded=0;orthogonalLoop=1;jettySize=auto;html=1;" parent="1" source="TbdX9DP5ORAAhlKmurt6-1" edge="1">
          <mxGeometry relative="1" as="geometry">
            <mxPoint x="414" y="100" as="targetPoint" />
          </mxGeometry>
        </mxCell>
        <mxCell id="TbdX9DP5ORAAhlKmurt6-1" value="APP" style="rounded=0;whiteSpace=wrap;html=1;" parent="1" vertex="1">
          <mxGeometry x="389" y="10" width="50" height="30" as="geometry" />
        </mxCell>
        <mxCell id="RCdA81vkIHAaocAsmrIj-5" value="MainActivity" style="rounded=0;whiteSpace=wrap;html=1;" parent="1" vertex="1">
          <mxGeometry x="353" y="100" width="121" height="30" as="geometry" />
        </mxCell>
        <mxCell id="xR8dtYIWZ2b2M1EVm6Ns-4" value="startActivity" style="text;html=1;align=center;verticalAlign=middle;resizable=0;points=[];autosize=1;strokeColor=none;fillColor=none;fontSize=15;" parent="1" vertex="1">
          <mxGeometry x="412" y="55" width="100" height="30" as="geometry" />
        </mxCell>
        <mxCell id="cB0qIOrDWD6cT7L2DAFy-3" value="" style="endArrow=none;html=1;rounded=0;fontSize=15;" parent="1" edge="1">
          <mxGeometry width="50" height="50" relative="1" as="geometry">
            <mxPoint x="415" y="170" as="sourcePoint" />
            <mxPoint x="415" y="131" as="targetPoint" />
          </mxGeometry>
        </mxCell>
        <mxCell id="cB0qIOrDWD6cT7L2DAFy-6" value="" style="endArrow=none;html=1;rounded=0;fontSize=15;" parent="1" edge="1">
          <mxGeometry width="50" height="50" relative="1" as="geometry">
            <mxPoint x="310" y="170" as="sourcePoint" />
            <mxPoint x="520" y="170" as="targetPoint" />
          </mxGeometry>
        </mxCell>
        <mxCell id="cB0qIOrDWD6cT7L2DAFy-7" value="MainActivity" style="rounded=0;whiteSpace=wrap;html=1;" parent="1" vertex="1">
          <mxGeometry x="990" y="800" width="121" height="30" as="geometry" />
        </mxCell>
        <mxCell id="cB0qIOrDWD6cT7L2DAFy-8" value="DetectionFragment" style="rounded=0;whiteSpace=wrap;html=1;" parent="1" vertex="1">
          <mxGeometry x="459" y="222" width="121" height="30" as="geometry" />
        </mxCell>
        <mxCell id="cB0qIOrDWD6cT7L2DAFy-9" value="" style="endArrow=classic;html=1;rounded=0;fontSize=15;" parent="1" edge="1">
          <mxGeometry width="50" height="50" relative="1" as="geometry">
            <mxPoint x="310" y="170" as="sourcePoint" />
            <mxPoint x="310" y="220" as="targetPoint" />
          </mxGeometry>
        </mxCell>
        <mxCell id="cB0qIOrDWD6cT7L2DAFy-10" value="" style="endArrow=classic;html=1;rounded=0;fontSize=15;" parent="1" edge="1">
          <mxGeometry width="50" height="50" relative="1" as="geometry">
            <mxPoint x="520" y="170" as="sourcePoint" />
            <mxPoint x="520" y="220" as="targetPoint" />
            <Array as="points">
              <mxPoint x="520" y="190" />
            </Array>
          </mxGeometry>
        </mxCell>
        <mxCell id="cB0qIOrDWD6cT7L2DAFy-11" value="BleDataFragment" style="rounded=0;whiteSpace=wrap;html=1;" parent="1" vertex="1">
          <mxGeometry x="247" y="220" width="121" height="30" as="geometry" />
        </mxCell>
        <mxCell id="cB0qIOrDWD6cT7L2DAFy-16" value="" style="edgeStyle=orthogonalEdgeStyle;rounded=0;orthogonalLoop=1;jettySize=auto;html=1;fontSize=15;" parent="1" edge="1">
          <mxGeometry relative="1" as="geometry">
            <mxPoint x="308" y="251" as="sourcePoint" />
            <mxPoint x="308" y="331" as="targetPoint" />
            <Array as="points">
              <mxPoint x="308.5" y="259" />
              <mxPoint x="308.5" y="259" />
            </Array>
          </mxGeometry>
        </mxCell>
        <mxCell id="cB0qIOrDWD6cT7L2DAFy-18" value="" style="endArrow=none;html=1;rounded=0;fontSize=15;" parent="1" edge="1">
          <mxGeometry width="50" height="50" relative="1" as="geometry">
            <mxPoint x="519" y="291" as="sourcePoint" />
            <mxPoint x="519" y="252" as="targetPoint" />
          </mxGeometry>
        </mxCell>
        <mxCell id="cB0qIOrDWD6cT7L2DAFy-19" value="" style="endArrow=none;html=1;rounded=0;fontSize=15;" parent="1" edge="1">
          <mxGeometry width="50" height="50" relative="1" as="geometry">
            <mxPoint x="420" y="290" as="sourcePoint" />
            <mxPoint x="630" y="290" as="targetPoint" />
          </mxGeometry>
        </mxCell>
        <mxCell id="cB0qIOrDWD6cT7L2DAFy-20" value="" style="endArrow=classic;html=1;rounded=0;fontSize=15;" parent="1" edge="1">
          <mxGeometry width="50" height="50" relative="1" as="geometry">
            <mxPoint x="420" y="290" as="sourcePoint" />
            <mxPoint x="420" y="340" as="targetPoint" />
          </mxGeometry>
        </mxCell>
        <mxCell id="cB0qIOrDWD6cT7L2DAFy-21" value="" style="endArrow=classic;html=1;rounded=0;fontSize=15;" parent="1" edge="1">
          <mxGeometry width="50" height="50" relative="1" as="geometry">
            <mxPoint x="630" y="290" as="sourcePoint" />
            <mxPoint x="630" y="340" as="targetPoint" />
          </mxGeometry>
        </mxCell>
        <mxCell id="cB0qIOrDWD6cT7L2DAFy-22" value="BleDeviceSearchActivity" style="rounded=0;whiteSpace=wrap;html=1;" parent="1" vertex="1">
          <mxGeometry x="368" y="340" width="140" height="30" as="geometry" />
        </mxCell>
        <mxCell id="cB0qIOrDWD6cT7L2DAFy-23" value="InfoActivity" style="rounded=0;whiteSpace=wrap;html=1;" parent="1" vertex="1">
          <mxGeometry x="580" y="340" width="121" height="30" as="geometry" />
        </mxCell>
        <mxCell id="cB0qIOrDWD6cT7L2DAFy-24" value="连接蓝牙设备" style="text;html=1;align=center;verticalAlign=middle;resizable=0;points=[];autosize=1;strokeColor=none;fillColor=none;fontSize=15;" parent="1" vertex="1">
          <mxGeometry x="414" y="300" width="110" height="30" as="geometry" />
        </mxCell>
        <mxCell id="cB0qIOrDWD6cT7L2DAFy-26" value="录入检测信息" style="text;html=1;align=center;verticalAlign=middle;resizable=0;points=[];autosize=1;strokeColor=none;fillColor=none;fontSize=15;" parent="1" vertex="1">
          <mxGeometry x="630" y="300" width="110" height="30" as="geometry" />
        </mxCell>
        <mxCell id="cB0qIOrDWD6cT7L2DAFy-27" style="edgeStyle=orthogonalEdgeStyle;rounded=0;orthogonalLoop=1;jettySize=auto;html=1;" parent="1" edge="1">
          <mxGeometry relative="1" as="geometry">
            <mxPoint x="630" y="431" as="targetPoint" />
            <mxPoint x="630" y="371" as="sourcePoint" />
          </mxGeometry>
        </mxCell>
        <mxCell id="cB0qIOrDWD6cT7L2DAFy-28" value="录入完成，通过蓝牙获取检测数据" style="text;html=1;align=center;verticalAlign=middle;resizable=0;points=[];autosize=1;strokeColor=none;fillColor=none;fontSize=15;" parent="1" vertex="1">
          <mxGeometry x="621" y="389" width="250" height="30" as="geometry" />
        </mxCell>
        <mxCell id="cB0qIOrDWD6cT7L2DAFy-29" value="DetectResultActivity" style="rounded=0;whiteSpace=wrap;html=1;" parent="1" vertex="1">
          <mxGeometry x="580" y="430" width="121" height="30" as="geometry" />
        </mxCell>
        <mxCell id="cB0qIOrDWD6cT7L2DAFy-33" value="跳转至详情界面" style="text;html=1;align=center;verticalAlign=middle;resizable=0;points=[];autosize=1;strokeColor=none;fillColor=none;fontSize=15;" parent="1" vertex="1">
          <mxGeometry x="186" y="270" width="130" height="30" as="geometry" />
        </mxCell>
        <mxCell id="cB0qIOrDWD6cT7L2DAFy-34" value="DataDetailActivity" style="rounded=0;whiteSpace=wrap;html=1;" parent="1" vertex="1">
          <mxGeometry x="239" y="330" width="121" height="30" as="geometry" />
        </mxCell>
        <mxCell id="cB0qIOrDWD6cT7L2DAFy-35" value="" style="edgeStyle=orthogonalEdgeStyle;rounded=0;orthogonalLoop=1;jettySize=auto;html=1;fontSize=15;" parent="1" edge="1">
          <mxGeometry relative="1" as="geometry">
            <mxPoint x="307" y="360" as="sourcePoint" />
            <mxPoint x="307" y="440" as="targetPoint" />
            <Array as="points">
              <mxPoint x="307.5" y="368" />
              <mxPoint x="307.5" y="368" />
            </Array>
          </mxGeometry>
        </mxCell>
        <mxCell id="cB0qIOrDWD6cT7L2DAFy-37" value="&lt;span style=&quot;color: rgba(0, 0, 0, 0); font-family: monospace; font-size: 0px; text-align: start;&quot;&gt;%3CmxGraphModel%3E%3Croot%3E%3CmxCell%20id%3D%220%22%2F%3E%3CmxCell%20id%3D%221%22%20parent%3D%220%22%2F%3E%3CmxCell%20id%3D%222%22%20value%3D%22%E8%B7%B3%E8%BD%AC%E8%87%B3%E8%AF%A6%E6%83%85%E7%95%8C%E9%9D%A2%22%20style%3D%22text%3Bhtml%3D1%3Balign%3Dcenter%3BverticalAlign%3Dmiddle%3Bresizable%3D0%3Bpoints%3D%5B%5D%3Bautosize%3D1%3BstrokeColor%3Dnone%3BfillColor%3Dnone%3BfontSize%3D15%3B%22%20vertex%3D%221%22%20parent%3D%221%22%3E%3CmxGeometry%20x%3D%22186%22%20y%3D%22270%22%20width%3D%22130%22%20height%3D%2230%22%20as%3D%22geometry%22%2F%3E%3C%2FmxCell%3E%3C%2Froot%3E%3C%2FmxGraphModel%3E&lt;/span&gt;" style="text;html=1;align=center;verticalAlign=middle;resizable=0;points=[];autosize=1;strokeColor=none;fillColor=none;fontSize=15;" parent="1" vertex="1">
          <mxGeometry x="256" y="389" width="20" height="30" as="geometry" />
        </mxCell>
        <mxCell id="cB0qIOrDWD6cT7L2DAFy-38" value="AddAdditionalActivity" style="rounded=0;whiteSpace=wrap;html=1;" parent="1" vertex="1">
          <mxGeometry x="239" y="440" width="121" height="30" as="geometry" />
        </mxCell>
        <mxCell id="cB0qIOrDWD6cT7L2DAFy-39" value="检测tab" style="text;html=1;align=center;verticalAlign=middle;resizable=0;points=[];autosize=1;strokeColor=none;fillColor=none;fontSize=15;" parent="1" vertex="1">
          <mxGeometry x="515" y="175" width="70" height="30" as="geometry" />
        </mxCell>
        <mxCell id="cB0qIOrDWD6cT7L2DAFy-41" value="数据tab" style="text;html=1;align=center;verticalAlign=middle;resizable=0;points=[];autosize=1;strokeColor=none;fillColor=none;fontSize=15;" parent="1" vertex="1">
          <mxGeometry x="240" y="175" width="70" height="30" as="geometry" />
        </mxCell>
        <mxCell id="cB0qIOrDWD6cT7L2DAFy-42" value="跳转至录入附加信息界面" style="text;html=1;align=center;verticalAlign=middle;resizable=0;points=[];autosize=1;strokeColor=none;fillColor=none;fontSize=15;" parent="1" vertex="1">
          <mxGeometry x="126" y="389" width="190" height="30" as="geometry" />
        </mxCell>
        <mxCell id="cB0qIOrDWD6cT7L2DAFy-44" value="" style="rounded=0;whiteSpace=wrap;html=1;fontSize=15;fillColor=none;dashed=1;strokeColor=#FF3333;" parent="1" vertex="1">
          <mxGeometry x="120" y="50" width="750" height="440" as="geometry" />
        </mxCell>
        <mxCell id="cB0qIOrDWD6cT7L2DAFy-45" value="SDK" style="text;strokeColor=none;fillColor=none;html=1;fontSize=24;fontStyle=1;verticalAlign=middle;align=center;dashed=1;" parent="1" vertex="1">
          <mxGeometry x="760" y="60" width="100" height="40" as="geometry" />
        </mxCell>
      </root>
    </mxGraphModel>
  </diagram>
  <diagram id="QCe4lMamiYM3imcMjoL9" name="广西铁塔APP与毒检设备的蓝牙通信流程">
    <mxGraphModel dx="1562" dy="837" grid="1" gridSize="10" guides="1" tooltips="1" connect="1" arrows="1" fold="1" page="1" pageScale="1" pageWidth="827" pageHeight="1169" math="0" shadow="0">
      <root>
        <mxCell id="0" />
        <mxCell id="1" parent="0" />
        <mxCell id="CeJ8LKH9rT9pA1xREq7U-1" value="&lt;font style=&quot;font-size: 20px;&quot;&gt;APP客户端&lt;/font&gt;" style="rounded=0;whiteSpace=wrap;html=1;" parent="1" vertex="1">
          <mxGeometry x="140" y="160" width="120" height="60" as="geometry" />
        </mxCell>
        <mxCell id="CeJ8LKH9rT9pA1xREq7U-2" value="&lt;font style=&quot;font-size: 20px;&quot;&gt;毒检设备&lt;br&gt;服务器端&lt;/font&gt;" style="rounded=0;whiteSpace=wrap;html=1;" parent="1" vertex="1">
          <mxGeometry x="552" y="160" width="120" height="60" as="geometry" />
        </mxCell>
        <mxCell id="Ja91Mk6feOOdBMIZXvHw-1" value="" style="endArrow=none;html=1;startArrow=none;" parent="1" source="OPyBC2VroEK_Ovv2BA3n-1" edge="1">
          <mxGeometry width="50" height="50" relative="1" as="geometry">
            <mxPoint x="200" y="900" as="sourcePoint" />
            <mxPoint x="199.5" y="220" as="targetPoint" />
          </mxGeometry>
        </mxCell>
        <mxCell id="Ja91Mk6feOOdBMIZXvHw-2" value="" style="endArrow=none;html=1;startArrow=none;" parent="1" edge="1">
          <mxGeometry width="50" height="50" relative="1" as="geometry">
            <mxPoint x="614.8076923076924" y="260" as="sourcePoint" />
            <mxPoint x="614.5" y="220" as="targetPoint" />
          </mxGeometry>
        </mxCell>
        <mxCell id="OPyBC2VroEK_Ovv2BA3n-1" value="" style="rounded=1;whiteSpace=wrap;html=1;" parent="1" vertex="1">
          <mxGeometry x="195" y="260" width="10" height="1230" as="geometry" />
        </mxCell>
        <mxCell id="OPyBC2VroEK_Ovv2BA3n-2" value="" style="endArrow=none;html=1;startArrow=none;" parent="1" target="OPyBC2VroEK_Ovv2BA3n-1" edge="1">
          <mxGeometry width="50" height="50" relative="1" as="geometry">
            <mxPoint x="200" y="1520" as="sourcePoint" />
            <mxPoint x="199.5" y="220" as="targetPoint" />
          </mxGeometry>
        </mxCell>
        <mxCell id="kfUVgh3D_nKi8xok97tB-3" value="" style="endArrow=none;html=1;startArrow=none;" parent="1" edge="1">
          <mxGeometry width="50" height="50" relative="1" as="geometry">
            <mxPoint x="616" y="1521.5999755859375" as="sourcePoint" />
            <mxPoint x="616" y="311" as="targetPoint" />
          </mxGeometry>
        </mxCell>
        <mxCell id="kfUVgh3D_nKi8xok97tB-4" value="搜索蓝牙设备，发起建立连接" style="text;html=1;strokeColor=none;fillColor=none;align=center;verticalAlign=middle;whiteSpace=wrap;rounded=0;fontSize=18;" parent="1" vertex="1">
          <mxGeometry x="285" y="250" width="270" height="30" as="geometry" />
        </mxCell>
        <mxCell id="kfUVgh3D_nKi8xok97tB-8" style="edgeStyle=orthogonalEdgeStyle;rounded=0;orthogonalLoop=1;jettySize=auto;html=1;entryX=1;entryY=0;entryDx=0;entryDy=0;" parent="1" edge="1">
          <mxGeometry relative="1" as="geometry">
            <mxPoint x="608" y="352" as="targetPoint" />
            <mxPoint x="205" y="352" as="sourcePoint" />
            <Array as="points">
              <mxPoint x="595" y="352" />
              <mxPoint x="595" y="352" />
            </Array>
          </mxGeometry>
        </mxCell>
        <mxCell id="kfUVgh3D_nKi8xok97tB-9" value="发送AT+PUBKEY命令" style="text;html=1;strokeColor=none;fillColor=none;align=center;verticalAlign=middle;whiteSpace=wrap;rounded=0;fontSize=18;" parent="1" vertex="1">
          <mxGeometry x="274" y="320" width="270" height="30" as="geometry" />
        </mxCell>
        <mxCell id="kfUVgh3D_nKi8xok97tB-11" value="" style="rounded=1;whiteSpace=wrap;html=1;" parent="1" vertex="1">
          <mxGeometry x="610" y="260" width="10" height="1230" as="geometry" />
        </mxCell>
        <mxCell id="QVwHdrxnny1LdIojXzTX-1" value="" style="endArrow=classic;html=1;exitX=-0.4;exitY=0.266;exitDx=0;exitDy=0;exitPerimeter=0;" parent="1" edge="1">
          <mxGeometry width="50" height="50" relative="1" as="geometry">
            <mxPoint x="608" y="421.26" as="sourcePoint" />
            <mxPoint x="208" y="419.34000000000015" as="targetPoint" />
          </mxGeometry>
        </mxCell>
        <mxCell id="QVwHdrxnny1LdIojXzTX-2" value="返回公钥Pubkey" style="text;html=1;strokeColor=none;fillColor=none;align=center;verticalAlign=middle;whiteSpace=wrap;rounded=0;fontSize=18;" parent="1" vertex="1">
          <mxGeometry x="264" y="390" width="270" height="30" as="geometry" />
        </mxCell>
        <mxCell id="624Ei30ZbfWsaop1gOVZ-1" value="" style="endArrow=classic;html=1;" parent="1" edge="1">
          <mxGeometry width="50" height="50" relative="1" as="geometry">
            <mxPoint x="205" y="460" as="sourcePoint" />
            <mxPoint x="205" y="510" as="targetPoint" />
            <Array as="points">
              <mxPoint x="230" y="460" />
              <mxPoint x="230" y="490" />
              <mxPoint x="230" y="510" />
            </Array>
          </mxGeometry>
        </mxCell>
        <mxCell id="624Ei30ZbfWsaop1gOVZ-2" value="生成一个随机对称秘钥（256位）AESKey" style="text;html=1;strokeColor=none;fillColor=none;align=center;verticalAlign=middle;whiteSpace=wrap;rounded=0;fontSize=18;" parent="1" vertex="1">
          <mxGeometry x="233" y="470" width="350" height="30" as="geometry" />
        </mxCell>
        <mxCell id="624Ei30ZbfWsaop1gOVZ-4" style="edgeStyle=orthogonalEdgeStyle;rounded=0;orthogonalLoop=1;jettySize=auto;html=1;entryX=1;entryY=0;entryDx=0;entryDy=0;" parent="1" edge="1">
          <mxGeometry relative="1" as="geometry">
            <mxPoint x="609" y="280" as="targetPoint" />
            <mxPoint x="206" y="280" as="sourcePoint" />
            <Array as="points">
              <mxPoint x="596" y="280" />
              <mxPoint x="596" y="280" />
            </Array>
          </mxGeometry>
        </mxCell>
        <mxCell id="624Ei30ZbfWsaop1gOVZ-5" value="" style="endArrow=classic;html=1;entryX=1.18;entryY=0.305;entryDx=0;entryDy=0;entryPerimeter=0;" parent="1" target="OPyBC2VroEK_Ovv2BA3n-1" edge="1">
          <mxGeometry width="50" height="50" relative="1" as="geometry">
            <mxPoint x="206" y="535" as="sourcePoint" />
            <mxPoint x="211" y="635" as="targetPoint" />
            <Array as="points">
              <mxPoint x="231" y="535" />
              <mxPoint x="231" y="575" />
              <mxPoint x="231" y="635" />
            </Array>
          </mxGeometry>
        </mxCell>
        <mxCell id="624Ei30ZbfWsaop1gOVZ-8" style="edgeStyle=orthogonalEdgeStyle;rounded=0;orthogonalLoop=1;jettySize=auto;html=1;entryX=1;entryY=0;entryDx=0;entryDy=0;" parent="1" edge="1">
          <mxGeometry relative="1" as="geometry">
            <mxPoint x="609.5" y="710" as="targetPoint" />
            <mxPoint x="206.5" y="710" as="sourcePoint" />
            <Array as="points">
              <mxPoint x="596.5" y="710" />
              <mxPoint x="596.5" y="710" />
            </Array>
          </mxGeometry>
        </mxCell>
        <mxCell id="624Ei30ZbfWsaop1gOVZ-10" value="" style="endArrow=classic;html=1;" parent="1" edge="1">
          <mxGeometry width="50" height="50" relative="1" as="geometry">
            <mxPoint x="620" y="708" as="sourcePoint" />
            <mxPoint x="620" y="758" as="targetPoint" />
            <Array as="points">
              <mxPoint x="645" y="708" />
              <mxPoint x="645" y="738" />
              <mxPoint x="645" y="758" />
            </Array>
          </mxGeometry>
        </mxCell>
        <mxCell id="624Ei30ZbfWsaop1gOVZ-11" value="用私钥解密eAESKey得到AESKey" style="text;html=1;strokeColor=none;fillColor=none;align=center;verticalAlign=middle;whiteSpace=wrap;rounded=0;fontSize=18;" parent="1" vertex="1">
          <mxGeometry x="644" y="719" width="177" height="37" as="geometry" />
        </mxCell>
        <mxCell id="624Ei30ZbfWsaop1gOVZ-13" value="发送AT指令，检查设备之间的通讯是否正常" style="text;html=1;strokeColor=none;fillColor=none;align=center;verticalAlign=middle;whiteSpace=wrap;rounded=0;fontSize=18;" parent="1" vertex="1">
          <mxGeometry x="227" y="776" width="350" height="25" as="geometry" />
        </mxCell>
        <mxCell id="624Ei30ZbfWsaop1gOVZ-14" style="edgeStyle=orthogonalEdgeStyle;rounded=0;orthogonalLoop=1;jettySize=auto;html=1;entryX=1;entryY=0;entryDx=0;entryDy=0;" parent="1" edge="1">
          <mxGeometry relative="1" as="geometry">
            <mxPoint x="609.5" y="806" as="targetPoint" />
            <mxPoint x="206.5" y="806" as="sourcePoint" />
            <Array as="points">
              <mxPoint x="596.5" y="806" />
              <mxPoint x="596.5" y="806" />
            </Array>
          </mxGeometry>
        </mxCell>
        <mxCell id="624Ei30ZbfWsaop1gOVZ-15" value="" style="endArrow=classic;html=1;exitX=-0.4;exitY=0.266;exitDx=0;exitDy=0;exitPerimeter=0;" parent="1" edge="1">
          <mxGeometry width="50" height="50" relative="1" as="geometry">
            <mxPoint x="608" y="861.9200000000001" as="sourcePoint" />
            <mxPoint x="208" y="860.0000000000002" as="targetPoint" />
          </mxGeometry>
        </mxCell>
        <mxCell id="624Ei30ZbfWsaop1gOVZ-16" value="返回OK" style="text;html=1;strokeColor=none;fillColor=none;align=center;verticalAlign=middle;whiteSpace=wrap;rounded=0;fontSize=18;" parent="1" vertex="1">
          <mxGeometry x="239" y="830" width="350" height="30" as="geometry" />
        </mxCell>
        <mxCell id="624Ei30ZbfWsaop1gOVZ-17" style="edgeStyle=orthogonalEdgeStyle;rounded=0;orthogonalLoop=1;jettySize=auto;html=1;entryX=1;entryY=0;entryDx=0;entryDy=0;" parent="1" edge="1">
          <mxGeometry relative="1" as="geometry">
            <mxPoint x="609.5" y="930" as="targetPoint" />
            <mxPoint x="206.5" y="930" as="sourcePoint" />
            <Array as="points">
              <mxPoint x="596.5" y="930" />
              <mxPoint x="596.5" y="930" />
            </Array>
          </mxGeometry>
        </mxCell>
        <mxCell id="624Ei30ZbfWsaop1gOVZ-18" value="发送AT+Q，获取支持的加密方式" style="text;html=1;strokeColor=none;fillColor=none;align=center;verticalAlign=middle;whiteSpace=wrap;rounded=0;fontSize=18;" parent="1" vertex="1">
          <mxGeometry x="227" y="900" width="350" height="30" as="geometry" />
        </mxCell>
        <mxCell id="624Ei30ZbfWsaop1gOVZ-19" value="返回支持的加密方式" style="text;html=1;strokeColor=none;fillColor=none;align=center;verticalAlign=middle;whiteSpace=wrap;rounded=0;fontSize=18;" parent="1" vertex="1">
          <mxGeometry x="239" y="960" width="350" height="30" as="geometry" />
        </mxCell>
        <mxCell id="624Ei30ZbfWsaop1gOVZ-20" value="" style="endArrow=classic;html=1;exitX=-0.4;exitY=0.266;exitDx=0;exitDy=0;exitPerimeter=0;" parent="1" edge="1">
          <mxGeometry width="50" height="50" relative="1" as="geometry">
            <mxPoint x="609" y="991.9200000000001" as="sourcePoint" />
            <mxPoint x="209" y="990.0000000000002" as="targetPoint" />
          </mxGeometry>
        </mxCell>
        <mxCell id="624Ei30ZbfWsaop1gOVZ-21" value="发送AT+DTR=JSON，获取检测数据" style="text;html=1;strokeColor=none;fillColor=none;align=center;verticalAlign=middle;whiteSpace=wrap;rounded=0;fontSize=18;" parent="1" vertex="1">
          <mxGeometry x="227" y="1040" width="350" height="30" as="geometry" />
        </mxCell>
        <mxCell id="624Ei30ZbfWsaop1gOVZ-22" style="edgeStyle=orthogonalEdgeStyle;rounded=0;orthogonalLoop=1;jettySize=auto;html=1;entryX=1;entryY=0;entryDx=0;entryDy=0;" parent="1" edge="1">
          <mxGeometry relative="1" as="geometry">
            <mxPoint x="608" y="1069" as="targetPoint" />
            <mxPoint x="205" y="1069" as="sourcePoint" />
            <Array as="points">
              <mxPoint x="595" y="1069" />
              <mxPoint x="595" y="1069" />
            </Array>
          </mxGeometry>
        </mxCell>
        <mxCell id="624Ei30ZbfWsaop1gOVZ-23" value="" style="endArrow=classic;html=1;exitX=-0.4;exitY=0.266;exitDx=0;exitDy=0;exitPerimeter=0;" parent="1" edge="1">
          <mxGeometry width="50" height="50" relative="1" as="geometry">
            <mxPoint x="605" y="1141.92" as="sourcePoint" />
            <mxPoint x="205" y="1140.0000000000002" as="targetPoint" />
          </mxGeometry>
        </mxCell>
        <mxCell id="624Ei30ZbfWsaop1gOVZ-26" value="返回检测结果json数据" style="text;html=1;strokeColor=none;fillColor=none;align=center;verticalAlign=middle;whiteSpace=wrap;rounded=0;fontSize=18;" parent="1" vertex="1">
          <mxGeometry x="233" y="1110" width="350" height="30" as="geometry" />
        </mxCell>
        <mxCell id="624Ei30ZbfWsaop1gOVZ-27" value="利用获取的BServer的公钥(PubKey)，采用RSA2048加密算法加密AESKey得到eAESKey" style="text;html=1;strokeColor=none;fillColor=none;align=center;verticalAlign=middle;whiteSpace=wrap;rounded=0;fontSize=18;" parent="1" vertex="1">
          <mxGeometry x="235" y="580" width="350" height="30" as="geometry" />
        </mxCell>
        <mxCell id="624Ei30ZbfWsaop1gOVZ-30" value="发送AT+AESKEY命令，把eAESKey发送给BServer&lt;br&gt;" style="text;html=1;strokeColor=none;fillColor=none;align=center;verticalAlign=middle;whiteSpace=wrap;rounded=0;fontSize=18;" parent="1" vertex="1">
          <mxGeometry x="228" y="673" width="360" height="30" as="geometry" />
        </mxCell>
      </root>
    </mxGraphModel>
  </diagram>
  <diagram id="yRpMKjrWlDGfMRN6IWc7" name="吸毒检测管理系统架构">
    <mxGraphModel dx="1562" dy="837" grid="1" gridSize="9" guides="1" tooltips="1" connect="1" arrows="1" fold="1" page="1" pageScale="1" pageWidth="1200" pageHeight="1600" math="0" shadow="0">
      <root>
        <mxCell id="0" />
        <mxCell id="1" parent="0" />
        <mxCell id="wW11B-0mewzzLRWWyLN7-1" value="吸毒检测管理web前端" style="rounded=0;whiteSpace=wrap;html=1;fontSize=18;" parent="1" vertex="1">
          <mxGeometry x="70" y="210" width="120" height="60" as="geometry" />
        </mxCell>
        <mxCell id="wW11B-0mewzzLRWWyLN7-4" value="吸毒检测管理APP" style="rounded=0;whiteSpace=wrap;html=1;fontSize=18;" parent="1" vertex="1">
          <mxGeometry x="70" y="300" width="120" height="60" as="geometry" />
        </mxCell>
        <mxCell id="wW11B-0mewzzLRWWyLN7-5" value="小程序" style="rounded=0;whiteSpace=wrap;html=1;fontSize=18;" parent="1" vertex="1">
          <mxGeometry x="70" y="400" width="120" height="60" as="geometry" />
        </mxCell>
        <mxCell id="wW11B-0mewzzLRWWyLN7-6" value="BH1000" style="rounded=0;whiteSpace=wrap;html=1;fontSize=18;" parent="1" vertex="1">
          <mxGeometry x="70" y="500" width="120" height="60" as="geometry" />
        </mxCell>
        <mxCell id="wW11B-0mewzzLRWWyLN7-7" value="人证核验机" style="rounded=0;whiteSpace=wrap;html=1;fontSize=18;" parent="1" vertex="1">
          <mxGeometry x="70" y="610" width="120" height="60" as="geometry" />
        </mxCell>
        <mxCell id="wW11B-0mewzzLRWWyLN7-9" value="Gs pro毒检设备" style="rounded=0;whiteSpace=wrap;html=1;fontSize=18;" parent="1" vertex="1">
          <mxGeometry x="70" y="710" width="120" height="60" as="geometry" />
        </mxCell>
        <mxCell id="65N-gDOdIpmg05iziuVn-2" value="Mysql 数据库" style="shape=cylinder3;whiteSpace=wrap;html=1;boundedLbl=1;backgroundOutline=1;size=15;fontSize=18;" parent="1" vertex="1">
          <mxGeometry x="729" y="333" width="69" height="113" as="geometry" />
        </mxCell>
        <mxCell id="65N-gDOdIpmg05iziuVn-3" value="" style="endArrow=classic;html=1;rounded=0;entryX=-0.013;entryY=0.643;entryDx=0;entryDy=0;entryPerimeter=0;" parent="1" edge="1">
          <mxGeometry width="50" height="50" relative="1" as="geometry">
            <mxPoint x="190" y="750" as="sourcePoint" />
            <mxPoint x="388.44000000000005" y="708.5799999999999" as="targetPoint" />
          </mxGeometry>
        </mxCell>
        <mxCell id="65N-gDOdIpmg05iziuVn-4" value="上传检测结果数据" style="text;html=1;strokeColor=none;fillColor=none;align=center;verticalAlign=middle;whiteSpace=wrap;rounded=0;fontFamily=Verdana;fontSize=18;" parent="1" vertex="1">
          <mxGeometry x="225" y="693" width="119" height="30" as="geometry" />
        </mxCell>
        <mxCell id="65N-gDOdIpmg05iziuVn-5" value="&lt;br&gt;&lt;span style=&quot;color: rgb(0, 0, 0); font-family: Helvetica; font-size: 18px; font-style: normal; font-variant-ligatures: normal; font-variant-caps: normal; font-weight: 400; letter-spacing: normal; orphans: 2; text-align: center; text-indent: 0px; text-transform: none; widows: 2; word-spacing: 0px; -webkit-text-stroke-width: 0px; background-color: rgb(248, 249, 250); text-decoration-thickness: initial; text-decoration-style: initial; text-decoration-color: initial; float: none; display: inline !important;&quot;&gt;吸毒检测管理&lt;br&gt;后台服务&lt;br&gt;&lt;br&gt;&lt;/span&gt;" style="ellipse;whiteSpace=wrap;html=1;fontFamily=Verdana;fontSize=18;" parent="1" vertex="1">
          <mxGeometry x="380" y="243" width="171" height="117" as="geometry" />
        </mxCell>
        <mxCell id="65N-gDOdIpmg05iziuVn-6" value="吸毒检测管理设备端后台服务" style="ellipse;whiteSpace=wrap;html=1;fontFamily=Verdana;fontSize=18;" parent="1" vertex="1">
          <mxGeometry x="389" y="414" width="162" height="132" as="geometry" />
        </mxCell>
        <mxCell id="65N-gDOdIpmg05iziuVn-8" value="" style="edgeStyle=orthogonalEdgeStyle;rounded=0;orthogonalLoop=1;jettySize=auto;html=1;fontFamily=Verdana;fontSize=18;" parent="1" source="65N-gDOdIpmg05iziuVn-7" target="65N-gDOdIpmg05iziuVn-6" edge="1">
          <mxGeometry relative="1" as="geometry" />
        </mxCell>
        <mxCell id="65N-gDOdIpmg05iziuVn-7" value="数据中心后台" style="ellipse;whiteSpace=wrap;html=1;fontFamily=Verdana;fontSize=18;" parent="1" vertex="1">
          <mxGeometry x="396.5" y="650.5" width="146.5" height="115" as="geometry" />
        </mxCell>
        <mxCell id="65N-gDOdIpmg05iziuVn-10" value="Mysql 数据库" style="shape=cylinder3;whiteSpace=wrap;html=1;boundedLbl=1;backgroundOutline=1;size=15;fontSize=18;" parent="1" vertex="1">
          <mxGeometry x="837" y="632" width="69" height="113" as="geometry" />
        </mxCell>
        <mxCell id="65N-gDOdIpmg05iziuVn-13" value="" style="endArrow=classic;html=1;rounded=0;fontFamily=Verdana;fontSize=18;" parent="1" edge="1">
          <mxGeometry width="50" height="50" relative="1" as="geometry">
            <mxPoint x="546" y="702" as="sourcePoint" />
            <mxPoint x="735" y="702" as="targetPoint" />
          </mxGeometry>
        </mxCell>
        <mxCell id="65N-gDOdIpmg05iziuVn-14" value="" style="endArrow=classic;html=1;rounded=0;fontFamily=Verdana;fontSize=18;" parent="1" edge="1">
          <mxGeometry width="50" height="50" relative="1" as="geometry">
            <mxPoint x="190" y="243" as="sourcePoint" />
            <mxPoint x="378" y="288" as="targetPoint" />
          </mxGeometry>
        </mxCell>
        <mxCell id="65N-gDOdIpmg05iziuVn-15" value="" style="endArrow=classic;html=1;rounded=0;fontFamily=Verdana;fontSize=18;exitX=1;exitY=0.5;exitDx=0;exitDy=0;" parent="1" source="wW11B-0mewzzLRWWyLN7-4" edge="1">
          <mxGeometry width="50" height="50" relative="1" as="geometry">
            <mxPoint x="330" y="360" as="sourcePoint" />
            <mxPoint x="380" y="310" as="targetPoint" />
          </mxGeometry>
        </mxCell>
        <mxCell id="65N-gDOdIpmg05iziuVn-16" value="" style="endArrow=classic;html=1;rounded=0;fontFamily=Verdana;fontSize=18;exitX=1.007;exitY=0.37;exitDx=0;exitDy=0;exitPerimeter=0;" parent="1" source="wW11B-0mewzzLRWWyLN7-5" edge="1">
          <mxGeometry width="50" height="50" relative="1" as="geometry">
            <mxPoint x="339" y="383" as="sourcePoint" />
            <mxPoint x="389" y="333" as="targetPoint" />
          </mxGeometry>
        </mxCell>
        <mxCell id="65N-gDOdIpmg05iziuVn-17" value="" style="endArrow=classic;html=1;rounded=0;fontFamily=Verdana;fontSize=18;" parent="1" target="65N-gDOdIpmg05iziuVn-5" edge="1">
          <mxGeometry width="50" height="50" relative="1" as="geometry">
            <mxPoint x="190" y="527" as="sourcePoint" />
            <mxPoint x="240" y="477" as="targetPoint" />
          </mxGeometry>
        </mxCell>
        <mxCell id="65N-gDOdIpmg05iziuVn-18" value="" style="endArrow=classic;html=1;rounded=0;fontFamily=Verdana;fontSize=18;entryX=0.199;entryY=0.93;entryDx=0;entryDy=0;entryPerimeter=0;" parent="1" target="65N-gDOdIpmg05iziuVn-5" edge="1">
          <mxGeometry width="50" height="50" relative="1" as="geometry">
            <mxPoint x="190" y="635" as="sourcePoint" />
            <mxPoint x="240" y="585" as="targetPoint" />
          </mxGeometry>
        </mxCell>
        <mxCell id="65N-gDOdIpmg05iziuVn-19" value="上传检测结果数据" style="text;html=1;strokeColor=none;fillColor=none;align=center;verticalAlign=middle;whiteSpace=wrap;rounded=0;fontFamily=Verdana;fontSize=18;" parent="1" vertex="1">
          <mxGeometry x="477" y="594" width="112" height="30" as="geometry" />
        </mxCell>
        <mxCell id="65N-gDOdIpmg05iziuVn-20" value="数据存储" style="text;html=1;strokeColor=none;fillColor=none;align=center;verticalAlign=middle;whiteSpace=wrap;rounded=0;fontFamily=Verdana;fontSize=18;" parent="1" vertex="1">
          <mxGeometry x="603" y="670" width="90" height="30" as="geometry" />
        </mxCell>
        <mxCell id="65N-gDOdIpmg05iziuVn-21" value="数据中心&lt;br&gt;web前端" style="rounded=0;whiteSpace=wrap;html=1;fontFamily=Verdana;fontSize=18;" parent="1" vertex="1">
          <mxGeometry x="70" y="819" width="120" height="60" as="geometry" />
        </mxCell>
        <mxCell id="65N-gDOdIpmg05iziuVn-22" value="" style="endArrow=classic;html=1;rounded=0;fontFamily=Verdana;fontSize=18;exitX=1;exitY=0.5;exitDx=0;exitDy=0;" parent="1" source="65N-gDOdIpmg05iziuVn-21" target="65N-gDOdIpmg05iziuVn-7" edge="1">
          <mxGeometry width="50" height="50" relative="1" as="geometry">
            <mxPoint x="190" y="860" as="sourcePoint" />
            <mxPoint x="240" y="810" as="targetPoint" />
          </mxGeometry>
        </mxCell>
        <mxCell id="hEkZLY1-qyLzuQFSMEWk-1" value="Redis&lt;br&gt;缓存" style="shape=cylinder3;whiteSpace=wrap;html=1;boundedLbl=1;backgroundOutline=1;size=15;fontFamily=Verdana;fontSize=18;" parent="1" vertex="1">
          <mxGeometry x="648" y="333" width="72" height="106" as="geometry" />
        </mxCell>
        <mxCell id="hEkZLY1-qyLzuQFSMEWk-2" value="Redis&lt;br&gt;缓存" style="shape=cylinder3;whiteSpace=wrap;html=1;boundedLbl=1;backgroundOutline=1;size=15;fontFamily=Verdana;fontSize=18;" parent="1" vertex="1">
          <mxGeometry x="756" y="639" width="72" height="106" as="geometry" />
        </mxCell>
      </root>
    </mxGraphModel>
  </diagram>
  <diagram id="8X4lvY02H0cBQyJ96LYi" name="吸毒检测管理系统架构2">
    <mxGraphModel dx="1562" dy="837" grid="1" gridSize="9" guides="1" tooltips="1" connect="1" arrows="1" fold="1" page="1" pageScale="1" pageWidth="1200" pageHeight="1600" math="0" shadow="0">
      <root>
        <mxCell id="0" />
        <mxCell id="1" parent="0" />
        <mxCell id="1JtoOtFJJqThCu_94i1F-1" value="Pool" style="swimlane;childLayout=stackLayout;resizeParent=1;resizeParentMax=0;startSize=20;horizontal=0;horizontalStack=1;fontFamily=Verdana;fontSize=18;" parent="1" vertex="1">
          <mxGeometry x="144" y="54" width="958" height="819" as="geometry" />
        </mxCell>
        <mxCell id="1JtoOtFJJqThCu_94i1F-2" value="客户端" style="swimlane;startSize=20;fontFamily=Verdana;fontSize=18;" parent="1JtoOtFJJqThCu_94i1F-1" vertex="1">
          <mxGeometry x="20" width="237" height="819" as="geometry" />
        </mxCell>
        <mxCell id="8A2xKvAMdi62kvVB8Rhq-2" value="吸毒检测管理web前端" style="rounded=1;whiteSpace=wrap;html=1;fontFamily=Verdana;fontSize=18;" parent="1JtoOtFJJqThCu_94i1F-2" vertex="1">
          <mxGeometry x="44" y="63" width="120" height="60" as="geometry" />
        </mxCell>
        <mxCell id="8A2xKvAMdi62kvVB8Rhq-3" value="&lt;span style=&quot;font-family: Helvetica;&quot;&gt;吸毒检测管理APP&lt;/span&gt;" style="rounded=1;whiteSpace=wrap;html=1;fontFamily=Verdana;fontSize=18;" parent="1JtoOtFJJqThCu_94i1F-2" vertex="1">
          <mxGeometry x="44" y="172" width="120" height="60" as="geometry" />
        </mxCell>
        <mxCell id="8A2xKvAMdi62kvVB8Rhq-4" value="&lt;span style=&quot;color: rgb(0, 0, 0); font-family: Helvetica; font-size: 18px; font-style: normal; font-variant-ligatures: normal; font-variant-caps: normal; font-weight: 400; letter-spacing: normal; orphans: 2; text-align: center; text-indent: 0px; text-transform: none; widows: 2; word-spacing: 0px; -webkit-text-stroke-width: 0px; background-color: rgb(248, 249, 250); text-decoration-thickness: initial; text-decoration-style: initial; text-decoration-color: initial; float: none; display: inline !important;&quot;&gt;小程序&lt;/span&gt;" style="rounded=1;whiteSpace=wrap;html=1;fontFamily=Verdana;fontSize=18;" parent="1JtoOtFJJqThCu_94i1F-2" vertex="1">
          <mxGeometry x="44" y="287" width="120" height="60" as="geometry" />
        </mxCell>
        <mxCell id="8A2xKvAMdi62kvVB8Rhq-5" value="BH1000" style="rounded=1;whiteSpace=wrap;html=1;fontFamily=Verdana;fontSize=18;" parent="1JtoOtFJJqThCu_94i1F-2" vertex="1">
          <mxGeometry x="44" y="397" width="120" height="60" as="geometry" />
        </mxCell>
        <mxCell id="LDattF3EKW0VErRge-64-2" value="人证核验机" style="rounded=1;whiteSpace=wrap;html=1;fontFamily=Verdana;fontSize=18;" parent="1JtoOtFJJqThCu_94i1F-2" vertex="1">
          <mxGeometry x="44" y="510" width="120" height="60" as="geometry" />
        </mxCell>
        <mxCell id="LDattF3EKW0VErRge-64-3" value="Gs pro" style="rounded=1;whiteSpace=wrap;html=1;fontFamily=Verdana;fontSize=18;" parent="1JtoOtFJJqThCu_94i1F-2" vertex="1">
          <mxGeometry x="44" y="620" width="120" height="54" as="geometry" />
        </mxCell>
        <mxCell id="SfVI2HF089sd5XSp8iRK-1" value="数据中心web前端" style="rounded=1;whiteSpace=wrap;html=1;fontFamily=Verdana;fontSize=18;" parent="1JtoOtFJJqThCu_94i1F-2" vertex="1">
          <mxGeometry x="44" y="724" width="120" height="60" as="geometry" />
        </mxCell>
        <mxCell id="AyML0gdOqqIqZlmgKAHb-3" value="" style="edgeStyle=segmentEdgeStyle;endArrow=classic;html=1;rounded=0;fontFamily=Verdana;fontSize=18;entryX=0.5;entryY=0;entryDx=0;entryDy=0;" parent="1JtoOtFJJqThCu_94i1F-2" target="H8Ynwsrjx7xrA71OvYXE-2" edge="1">
          <mxGeometry width="50" height="50" relative="1" as="geometry">
            <mxPoint x="169" y="89" as="sourcePoint" />
            <mxPoint x="322" y="107" as="targetPoint" />
          </mxGeometry>
        </mxCell>
        <mxCell id="MBMKjF4wo_iBSw7VPx7c-8" value="&lt;font style=&quot;font-size: 18px;&quot;&gt;1&lt;/font&gt;" style="ellipse;whiteSpace=wrap;html=1;aspect=fixed;rounded=0;shadow=0;" vertex="1" parent="1JtoOtFJJqThCu_94i1F-2">
          <mxGeometry x="198" y="56" width="27" height="27" as="geometry" />
        </mxCell>
        <mxCell id="MBMKjF4wo_iBSw7VPx7c-40" value="&lt;font style=&quot;font-size: 18px;&quot;&gt;1&lt;/font&gt;" style="ellipse;whiteSpace=wrap;html=1;aspect=fixed;rounded=0;shadow=0;" vertex="1" parent="1JtoOtFJJqThCu_94i1F-2">
          <mxGeometry x="198" y="167" width="27" height="27" as="geometry" />
        </mxCell>
        <mxCell id="MBMKjF4wo_iBSw7VPx7c-43" value="&lt;font style=&quot;font-size: 18px;&quot;&gt;1&lt;/font&gt;" style="ellipse;whiteSpace=wrap;html=1;aspect=fixed;rounded=0;shadow=0;" vertex="1" parent="1JtoOtFJJqThCu_94i1F-2">
          <mxGeometry x="198" y="281" width="27" height="27" as="geometry" />
        </mxCell>
        <mxCell id="MBMKjF4wo_iBSw7VPx7c-44" value="&lt;font style=&quot;font-size: 18px;&quot;&gt;2&lt;/font&gt;" style="ellipse;whiteSpace=wrap;html=1;aspect=fixed;rounded=0;shadow=0;" vertex="1" parent="1JtoOtFJJqThCu_94i1F-2">
          <mxGeometry x="198" y="396" width="27" height="27" as="geometry" />
        </mxCell>
        <mxCell id="MBMKjF4wo_iBSw7VPx7c-45" value="&lt;font style=&quot;font-size: 18px;&quot;&gt;1&lt;/font&gt;" style="ellipse;whiteSpace=wrap;html=1;aspect=fixed;rounded=0;shadow=0;" vertex="1" parent="1JtoOtFJJqThCu_94i1F-2">
          <mxGeometry x="198" y="504" width="27" height="27" as="geometry" />
        </mxCell>
        <mxCell id="MBMKjF4wo_iBSw7VPx7c-46" value="&lt;font style=&quot;font-size: 18px;&quot;&gt;3&lt;/font&gt;" style="ellipse;whiteSpace=wrap;html=1;aspect=fixed;rounded=0;shadow=0;" vertex="1" parent="1JtoOtFJJqThCu_94i1F-2">
          <mxGeometry x="198" y="612" width="27" height="27" as="geometry" />
        </mxCell>
        <mxCell id="MBMKjF4wo_iBSw7VPx7c-47" value="&lt;font style=&quot;font-size: 18px;&quot;&gt;4&lt;/font&gt;" style="ellipse;whiteSpace=wrap;html=1;aspect=fixed;rounded=0;shadow=0;" vertex="1" parent="1JtoOtFJJqThCu_94i1F-2">
          <mxGeometry x="198" y="719" width="27" height="27" as="geometry" />
        </mxCell>
        <mxCell id="1JtoOtFJJqThCu_94i1F-3" value="服务器端" style="swimlane;startSize=20;fontFamily=Verdana;fontSize=18;" parent="1JtoOtFJJqThCu_94i1F-1" vertex="1">
          <mxGeometry x="257" width="355" height="819" as="geometry" />
        </mxCell>
        <mxCell id="H8Ynwsrjx7xrA71OvYXE-2" value="吸毒检测管理后台服务" style="ellipse;whiteSpace=wrap;html=1;fontFamily=Verdana;fontSize=18;" parent="1JtoOtFJJqThCu_94i1F-3" vertex="1">
          <mxGeometry x="115" y="114.5" width="136" height="101" as="geometry" />
        </mxCell>
        <mxCell id="UJc5CSosXn5bk7j8U4Ax-1" value="吸毒检测管理设备端后台服务" style="ellipse;whiteSpace=wrap;html=1;fontFamily=Verdana;fontSize=18;" parent="1JtoOtFJJqThCu_94i1F-3" vertex="1">
          <mxGeometry x="111.5" y="324" width="143.5" height="115" as="geometry" />
        </mxCell>
        <mxCell id="AyML0gdOqqIqZlmgKAHb-10" value="" style="edgeStyle=orthogonalEdgeStyle;rounded=0;orthogonalLoop=1;jettySize=auto;html=1;fontFamily=Verdana;fontSize=18;" parent="1JtoOtFJJqThCu_94i1F-3" source="AyML0gdOqqIqZlmgKAHb-1" target="UJc5CSosXn5bk7j8U4Ax-1" edge="1">
          <mxGeometry relative="1" as="geometry" />
        </mxCell>
        <mxCell id="AyML0gdOqqIqZlmgKAHb-1" value="数据中心后台" style="ellipse;whiteSpace=wrap;html=1;fontFamily=Verdana;fontSize=18;" parent="1JtoOtFJJqThCu_94i1F-3" vertex="1">
          <mxGeometry x="111" y="485" width="143" height="100" as="geometry" />
        </mxCell>
        <mxCell id="1JtoOtFJJqThCu_94i1F-4" value="数据库" style="swimlane;startSize=20;fontFamily=Verdana;fontSize=18;" parent="1JtoOtFJJqThCu_94i1F-1" vertex="1">
          <mxGeometry x="612" width="346" height="819" as="geometry" />
        </mxCell>
        <mxCell id="AyML0gdOqqIqZlmgKAHb-16" value="数据存储" style="swimlane;fontFamily=Verdana;fontSize=18;" parent="1JtoOtFJJqThCu_94i1F-4" vertex="1">
          <mxGeometry x="81" y="127" width="200" height="199" as="geometry" />
        </mxCell>
        <mxCell id="AyML0gdOqqIqZlmgKAHb-14" value="Mysql" style="shape=datastore;whiteSpace=wrap;html=1;fontFamily=Verdana;fontSize=18;" parent="AyML0gdOqqIqZlmgKAHb-16" vertex="1">
          <mxGeometry x="108" y="58.5" width="63" height="73" as="geometry" />
        </mxCell>
        <mxCell id="AyML0gdOqqIqZlmgKAHb-15" value="Redis" style="shape=datastore;whiteSpace=wrap;html=1;fontFamily=Verdana;fontSize=18;" parent="AyML0gdOqqIqZlmgKAHb-16" vertex="1">
          <mxGeometry x="36" y="60" width="63" height="73" as="geometry" />
        </mxCell>
        <mxCell id="AyML0gdOqqIqZlmgKAHb-17" value="数据存储" style="swimlane;fontFamily=Verdana;fontSize=18;" parent="1JtoOtFJJqThCu_94i1F-4" vertex="1">
          <mxGeometry x="81" y="429" width="200" height="199" as="geometry" />
        </mxCell>
        <mxCell id="AyML0gdOqqIqZlmgKAHb-18" value="Mysql" style="shape=datastore;whiteSpace=wrap;html=1;fontFamily=Verdana;fontSize=18;" parent="AyML0gdOqqIqZlmgKAHb-17" vertex="1">
          <mxGeometry x="108" y="58.5" width="63" height="73" as="geometry" />
        </mxCell>
        <mxCell id="AyML0gdOqqIqZlmgKAHb-19" value="Redis" style="shape=datastore;whiteSpace=wrap;html=1;fontFamily=Verdana;fontSize=18;" parent="AyML0gdOqqIqZlmgKAHb-17" vertex="1">
          <mxGeometry x="36" y="60" width="63" height="73" as="geometry" />
        </mxCell>
        <mxCell id="AyML0gdOqqIqZlmgKAHb-4" value="" style="edgeStyle=orthogonalEdgeStyle;rounded=0;orthogonalLoop=1;jettySize=auto;html=1;fontFamily=Verdana;fontSize=18;" parent="1JtoOtFJJqThCu_94i1F-1" source="8A2xKvAMdi62kvVB8Rhq-3" target="H8Ynwsrjx7xrA71OvYXE-2" edge="1">
          <mxGeometry relative="1" as="geometry" />
        </mxCell>
        <mxCell id="AyML0gdOqqIqZlmgKAHb-7" value="" style="edgeStyle=orthogonalEdgeStyle;rounded=0;orthogonalLoop=1;jettySize=auto;html=1;fontFamily=Verdana;fontSize=18;entryX=0.007;entryY=0.63;entryDx=0;entryDy=0;entryPerimeter=0;" parent="1JtoOtFJJqThCu_94i1F-1" source="LDattF3EKW0VErRge-64-2" target="H8Ynwsrjx7xrA71OvYXE-2" edge="1">
          <mxGeometry relative="1" as="geometry" />
        </mxCell>
        <mxCell id="AyML0gdOqqIqZlmgKAHb-8" value="" style="edgeStyle=orthogonalEdgeStyle;rounded=0;orthogonalLoop=1;jettySize=auto;html=1;fontFamily=Verdana;fontSize=18;entryX=0.344;entryY=0.988;entryDx=0;entryDy=0;entryPerimeter=0;" parent="1JtoOtFJJqThCu_94i1F-1" target="AyML0gdOqqIqZlmgKAHb-1" edge="1">
          <mxGeometry relative="1" as="geometry">
            <mxPoint x="185" y="647" as="sourcePoint" />
            <mxPoint x="416.03200000000015" y="592.8" as="targetPoint" />
            <Array as="points">
              <mxPoint x="417" y="647" />
            </Array>
          </mxGeometry>
        </mxCell>
        <mxCell id="AyML0gdOqqIqZlmgKAHb-9" value="" style="edgeStyle=orthogonalEdgeStyle;rounded=0;orthogonalLoop=1;jettySize=auto;html=1;fontFamily=Verdana;fontSize=18;" parent="1JtoOtFJJqThCu_94i1F-1" source="SfVI2HF089sd5XSp8iRK-1" target="AyML0gdOqqIqZlmgKAHb-1" edge="1">
          <mxGeometry relative="1" as="geometry" />
        </mxCell>
        <mxCell id="AyML0gdOqqIqZlmgKAHb-13" style="edgeStyle=orthogonalEdgeStyle;rounded=0;orthogonalLoop=1;jettySize=auto;html=1;fontFamily=Verdana;fontSize=18;" parent="1JtoOtFJJqThCu_94i1F-1" source="8A2xKvAMdi62kvVB8Rhq-4" target="H8Ynwsrjx7xrA71OvYXE-2" edge="1">
          <mxGeometry relative="1" as="geometry" />
        </mxCell>
        <mxCell id="bfEkAyqTa4U18kLi4ztO-1" style="edgeStyle=orthogonalEdgeStyle;rounded=0;orthogonalLoop=1;jettySize=auto;html=1;entryX=0;entryY=0.75;entryDx=0;entryDy=0;fontFamily=Verdana;fontSize=18;" parent="1JtoOtFJJqThCu_94i1F-1" source="UJc5CSosXn5bk7j8U4Ax-1" target="AyML0gdOqqIqZlmgKAHb-16" edge="1">
          <mxGeometry relative="1" as="geometry" />
        </mxCell>
        <mxCell id="MBMKjF4wo_iBSw7VPx7c-5" style="edgeStyle=orthogonalEdgeStyle;rounded=0;orthogonalLoop=1;jettySize=auto;html=1;entryX=0;entryY=0.5;entryDx=0;entryDy=0;" edge="1" parent="1JtoOtFJJqThCu_94i1F-1" source="8A2xKvAMdi62kvVB8Rhq-5" target="UJc5CSosXn5bk7j8U4Ax-1">
          <mxGeometry relative="1" as="geometry" />
        </mxCell>
        <mxCell id="1JtoOtFJJqThCu_94i1F-6" value="吸毒检测管理系统架构" style="text;html=1;strokeColor=none;fillColor=none;align=center;verticalAlign=middle;whiteSpace=wrap;rounded=0;fontFamily=Verdana;fontSize=18;" parent="1" vertex="1">
          <mxGeometry x="126" y="9" width="216" height="39" as="geometry" />
        </mxCell>
        <mxCell id="AyML0gdOqqIqZlmgKAHb-20" style="edgeStyle=orthogonalEdgeStyle;rounded=0;orthogonalLoop=1;jettySize=auto;html=1;fontFamily=Verdana;fontSize=18;" parent="1" source="AyML0gdOqqIqZlmgKAHb-1" edge="1">
          <mxGeometry relative="1" as="geometry">
            <mxPoint x="837" y="589" as="targetPoint" />
          </mxGeometry>
        </mxCell>
        <mxCell id="AyML0gdOqqIqZlmgKAHb-21" style="edgeStyle=orthogonalEdgeStyle;rounded=0;orthogonalLoop=1;jettySize=auto;html=1;fontFamily=Verdana;fontSize=18;" parent="1" source="H8Ynwsrjx7xrA71OvYXE-2" edge="1">
          <mxGeometry relative="1" as="geometry">
            <mxPoint x="837" y="242" as="targetPoint" />
          </mxGeometry>
        </mxCell>
      </root>
    </mxGraphModel>
  </diagram>
</mxfile>
